<?xml version="1.0" encoding="UTF-8" standalone="no"?>
<!-- Generated by graphviz version 2.38.0 (20140413.2041)
 -->

<!-- Title: %3 Pages: 1 -->

<svg
   xmlns:dc="http://purl.org/dc/elements/1.1/"
   xmlns:cc="http://creativecommons.org/ns#"
   xmlns:rdf="http://www.w3.org/1999/02/22-rdf-syntax-ns#"
   xmlns:svg="http://www.w3.org/2000/svg"
   xmlns="http://www.w3.org/2000/svg"
   xmlns:sodipodi="http://sodipodi.sourceforge.net/DTD/sodipodi-0.dtd"
   xmlns:inkscape="http://www.inkscape.org/namespaces/inkscape"
   width="76.516159pt"
   height="70.605232pt"
   viewBox="0 0 76.516159 70.570791"
   version="1.1"
   id="svg446"
   sodipodi:docname="graph.svg"
   inkscape:version="0.92.5 (0.92.5+69)">
  <metadata
     id="metadata452">
    <rdf:RDF>
      <cc:Work
         rdf:about="">
        <dc:format>image/svg+xml</dc:format>
        <dc:type
           rdf:resource="http://purl.org/dc/dcmitype/StillImage" />
        <dc:title></dc:title>
      </cc:Work>
    </rdf:RDF>
  </metadata>
  <defs
     id="defs450" />
  <sodipodi:namedview
     pagecolor="#ffffff"
     bordercolor="#666666"
     borderopacity="1"
     objecttolerance="10"
     gridtolerance="10"
     guidetolerance="10"
     inkscape:pageopacity="0"
     inkscape:pageshadow="2"
     inkscape:window-width="1871"
     inkscape:window-height="1061"
     id="namedview448"
     showgrid="false"
     fit-margin-top="0"
     fit-margin-left="0"
     fit-margin-right="0"
     fit-margin-bottom="0"
     inkscape:zoom="5.2280327"
     inkscape:cx="27.284604"
     inkscape:cy="42.880909"
     inkscape:window-x="536"
     inkscape:window-y="1595"
     inkscape:window-maximized="0"
     inkscape:current-layer="svg446" />
  <circle
     cx="24.065874"
     cy="61.690723"
     id="ellipse138"
     r="6.8935232"
     style="fill:#ff7f0e;stroke:#000000;stroke-width:0" />
  <circle
     cx="55.682941"
     cy="61.525173"
     id="ellipse149"
     r="9.0600586"
     style="fill:#1f77b4;stroke:#000000;stroke-width:0" />
  <circle
     cx="71.592209"
     cy="32.222847"
     id="ellipse160"
     r="4.923945"
     style="fill:#9467bd;stroke:#000000;stroke-width:0" />
  <circle
     cx="54.512012"
     cy="5.6165371"
     id="ellipse171"
     r="5.0224237"
     style="fill:#c5b0d5;stroke:#000000;stroke-width:0" />
  <circle
     cx="7.829073"
     cy="34.560951"
     id="ellipse180"
     r="7.8290725"
     style="fill:#2ca02c;stroke:#000000;stroke-width:0" />
  <circle
     cx="22.915545"
     cy="6.7750435"
     id="ellipse189"
     r="6.7950439"
     style="fill:#aec7e8;stroke:#000000;stroke-width:0" />
  <g
     class="edge"
     id="edge25"
     transform="matrix(0.0984789,0,0,0.0984789,-66.924291,33.731869)">
    <title
       id="title347">Tfh_CD4T
R-&gt;Activated_Bcell
R</title>
    <path
       style="fill:none;stroke:#2171b5;stroke-width:5"
       inkscape:connector-curvature="0"
       id="path349"
       d="M 983.617,246.915 C 1068.48,194.299 1224.48,97.5752 1321.46,37.4458" />
    <polygon
       style="fill:#2171b5;stroke:#2171b5;stroke-width:5"
       id="polygon351"
       points="1364.05,11.0387 1333.08,55.9779 1310.03,18.7951 " />
  </g>
  <g
     class="edge"
     id="edge28"
     transform="matrix(0.0984789,0,0,0.0984789,-66.924291,33.731869)">
    <title
       id="title354">Tfh_CD4T
R-&gt;Plasma_Bcell_IgG
R</title>
    <path
       style="fill:none;stroke:#c7dbef;stroke-width:2"
       inkscape:connector-curvature="0"
       id="path356"
       d="m 957.482,222.158 c 59.688,-109.924 183.638,-338.212 242.808,-447.2" />
    <polygon
       style="fill:#c7dbef;stroke:#c7dbef;stroke-width:2"
       id="polygon358"
       points="1208.71,-240.54 1205.74,-222.238 1194.97,-228.083 " />
  </g>
  <g
     class="edge"
     id="edge27"
     transform="matrix(0.0984789,0,0,0.0984789,-66.924291,33.731869)">
    <title
       id="title361">Tfh_CD4T
R-&gt;FCGR1_Mac
R</title>
    <path
       style="fill:none;stroke:#fb6b4b;stroke-width:3"
       inkscape:connector-curvature="0"
       id="path363"
       d="M 878.656,230.291 C 856.142,196.863 829.121,152.778 806.367,112.701" />
    <polygon
       style="fill:#fb6b4b;stroke:#fb6b4b;stroke-width:3"
       id="polygon365"
       points="789.389,82.0459 817.063,106.728 795.63,118.599 " />
  </g>
  <g
     class="edge"
     id="edge26"
     transform="matrix(0.0984789,0,0,0.0984789,-66.924291,33.731869)">
    <title
       id="title368">Tfh_CD4T
R-&gt;Late_Activation_CD8T
R</title>
    <path
       style="fill:none;stroke:#cb181d;stroke-width:5"
       inkscape:connector-curvature="0"
       id="path370"
       d="m 922.488,213.846 c -1.932,-92.258 -5.359,-255.8672 -7.707,-367.916" />
    <polygon
       style="fill:#cb181d;stroke:#cb181d;stroke-width:5"
       id="polygon372"
       points="913.727,-204.395 936.645,-154.864 892.904,-153.948 " />
  </g>
  <g
     class="edge"
     id="edge24"
     transform="matrix(0.0984789,0,0,0.0984789,-66.924291,33.731869)">
    <title
       id="title375">Trm_CD8T
R-&gt;Activated_Bcell
R</title>
    <path
       style="fill:none;stroke:#2171b5;stroke-width:5"
       inkscape:connector-curvature="0"
       id="path377"
       d="m 1288.94,201.312 c 21.58,-39.734 47.61,-87.688 69.7,-128.3675" />
    <polygon
       style="fill:#2171b5;stroke:#2171b5;stroke-width:5"
       id="polygon379"
       points="1382.65,28.7193 1378.02,83.098 1339.57,62.2223 " />
  </g>
  <g
     class="edge"
     id="edge22"
     transform="matrix(0.0984789,0,0,0.0984789,-66.924291,33.731869)">
    <title
       id="title382">Trm_CD8T
R-&gt;FCGR1_Mac
R</title>
    <path
       style="fill:none;stroke:#fb6b4b;stroke-width:3"
       inkscape:connector-curvature="0"
       id="path384"
       d="M 1162.23,241.513 C 1077.54,196.043 946.017,122.095 856.393,69.6581" />
    <polygon
       style="fill:#fb6b4b;stroke:#fb6b4b;stroke-width:3"
       id="polygon386"
       points="826.009,51.7478 862.381,58.9681 849.94,80.0741 " />
  </g>
  <g
     class="edge"
     id="edge23"
     transform="matrix(0.0984789,0,0,0.0984789,-66.924291,33.731869)">
    <title
       id="title389">Trm_CD8T
R-&gt;Late_Activation_CD8T
R</title>
    <path
       style="fill:none;stroke:#cb181d;stroke-width:5"
       inkscape:connector-curvature="0"
       id="path391"
       d="m 1197.69,203.161 c -58.9,-98.409 -159.6,-266.6635 -224.283,-374.749" />
    <polygon
       style="fill:#cb181d;stroke:#cb181d;stroke-width:5"
       id="polygon393"
       points="947.711,-214.523 992.158,-182.853 954.618,-160.386 " />
  </g>
  <g
     class="edge"
     id="edge29"
     transform="matrix(0.0984789,0,0,0.0984789,-66.924291,33.731869)">
    <title
       id="title396">Activated_Bcell
R-&gt;Plasma_Bcell_IgG
R</title>
    <path
       style="fill:none;stroke:#000000;stroke-width:3;stroke-dasharray:1, 5"
       inkscape:connector-curvature="0"
       id="path398"
       d="M 1379.46,-57.5379 C 1350.13,-103.231 1303.16,-176.4 1270.36,-227.478" />
    <polygon
       style="fill:#000000;stroke:#000000;stroke-width:3"
       id="polygon400"
       points="1260.89,-242.238 1275.5,-230.821 1265.19,-224.203 " />
  </g>
  <g
     class="edge"
     id="edge30"
     transform="matrix(0.0984789,0,0,0.0984789,-66.619971,33.630429)">
    <title
       id="title403">Plasma_Bcell_IgG
R-&gt;FCGR1_Mac
R</title>
    <path
       style="fill:none;stroke:#2171b5;stroke-width:5"
       inkscape:connector-curvature="0"
       id="path405"
       d="m 1189.37,-258.372 c -72.11,44.712 -218.086,135.218 -319.911,198.3525" />
    <polygon
       style="fill:#2171b5;stroke:#2171b5;stroke-width:5"
       id="polygon407"
       points="857.839,-78.5532 880.893,-41.3703 826.872,-33.6139 " />
  </g>
  <g
     class="edge"
     id="edge31"
     transform="matrix(0.0984789,0,0,0.0984789,-66.924291,33.731869)">
    <title
       id="title410">Plasma_Bcell_IgG
R-&gt;Late_Activation_CD8T
R</title>
    <path
       style="fill:none;stroke:#cb181d;stroke-width:5"
       inkscape:connector-curvature="0"
       id="path412"
       d="m 1181.92,-283.619 c -40.35,1.479 -98.26,3.603 -150.08,5.503" />
    <polygon
       style="fill:#cb181d;stroke:#cb181d;stroke-width:5"
       id="polygon414"
       points="981.516,-276.271 1030.68,-299.963 1032.28,-256.243 " />
  </g>
  <g
     class="edge"
     id="edge33"
     transform="matrix(0.0984789,0,0,0.0984789,-66.924291,33.731869)">
    <title
       id="title417">FCGR1_Mac
R-&gt;Tfh_CD4T
R</title>
    <path
       style="fill:none;stroke:#cb181d;stroke-width:5"
       inkscape:connector-curvature="0"
       id="path419"
       d="m 809.76,70.0973 c 20.382,30.8007 43.72,68.9587 64.037,104.4887" />
    <polygon
       style="fill:#cb181d;stroke:#cb181d;stroke-width:5"
       id="polygon421"
       points="898.064,218.561 854.754,185.353 893.059,164.215 " />
  </g>
  <g
     class="edge"
     id="edge34"
     transform="matrix(0.0984789,0,0,0.0984789,-66.924291,33.731869)">
    <title
       id="title424">FCGR1_Mac
R-&gt;Tfh_CD4T
R</title>
    <path
       style="fill:none;stroke:#6caed6;stroke-width:3"
       inkscape:connector-curvature="0"
       id="path426"
       d="m 800.047,76.871 c 21.086,35.232 47.067,78.642 69.783,116.598" />
    <polygon
       style="fill:#6caed6;stroke:#6caed6;stroke-width:3"
       id="polygon428"
       points="887.964,223.77 859.479,200.028 880.502,187.446 " />
  </g>
  <g
     class="edge"
     id="edge35"
     transform="matrix(0.0984789,0,0,0.0984789,-66.924291,33.731869)">
    <title
       id="title431">FCGR1_Mac
R-&gt;Trm_CD8T
R</title>
    <path
       style="fill:none;stroke:#fb6b4b;stroke-width:3"
       inkscape:connector-curvature="0"
       id="path433"
       d="M 830.846,43.2398 C 911.675,86.3311 1043.87,160.486 1137.14,214.825" />
    <polygon
       style="fill:#fb6b4b;stroke:#fb6b4b;stroke-width:3"
       id="polygon435"
       points="1167.45,232.599 1131.06,225.462 1143.46,204.327 " />
  </g>
  <g
     class="edge"
     id="edge32"
     transform="matrix(0.0984789,0,0,0.0984789,-66.924291,33.731869)">
    <title
       id="title438">FCGR1_Mac
R-&gt;Late_Activation_CD8T
R</title>
    <path
       style="fill:none;stroke:#fcbca2;stroke-width:2"
       inkscape:connector-curvature="0"
       id="path440"
       d="M 797.145,-61.6887 C 819.589,-103.025 848,-155.352 870.983,-197.682" />
    <polygon
       style="fill:#fcbca2;stroke:#fcbca2;stroke-width:2"
       id="polygon442"
       points="879.343,-213.078 876.375,-194.776 865.61,-200.621 " />
  </g>
</svg>
